PathFileType	4	(X/Y/Z)	./resultDataOpenSim/trcMotMarkerGrf/sub10/qtm-05-02.trc
DataRate	CameraRate	NumFrames	NumMarkers	Units	OrigDataRate	OrigDataStartFrame	OrigNumFrames
250.000000	250.000000	9	24	m	250.000000	332	530
Frame#	Time	L.Toe.Tip			R.Toe.Tip			L.Ankle.Lat			R.Ankle.Lat			L.Ankle.Med			R.Ankle.Med			L.Heel			R.Heel			L.Knee.Lat			R.Knee.Lat			L.Knee.Med			R.Knee.Med			L.Thigh.Upper			R.Thigh.Upper			L.ASIS			R.ASIS			V.Sacral			L.Acromium			R.Acromium			C7			L.Elbow			R.Elbow			L.Wrist.Lat			R.Wrist.Lat
		X1	Y1	Z1	X2	Y2	Z2	X3	Y3	Z3	X4	Y4	Z4	X5	Y5	Z5	X6	Y6	Z6	X7	Y7	Z7	X8	Y8	Z8	X9	Y9	Z9	X10	Y10	Z10	X11	Y11	Z11	X12	Y12	Z12	X13	Y13	Z13	X14	Y14	Z14	X15	Y15	Z15	X16	Y16	Z16	X17	Y17	Z17	X18	Y18	Z18	X19	Y19	Z19	X20	Y20	Z20	X21	Y21	Z21	X22	Y22	Z22	X23	Y23	Z23	X24	Y24	Z24

332	1.324	0.056200578	-0.060451736	-0.022348685	0.89697657	0.040408117	0.053975464	0.011290815	0.061207904	-0.076351838	0.75795598	0.053743953	0.10509384	0.040397985	0.073504851	0.00063754518	0.76804141	0.079249093	0.018718052	-0.039491574	0.09792985	-0.028760601	0.70476229	0.028716325	0.063933158	0.25324364	0.36755085	-0.11320739	0.7046735	0.44830922	0.12412744	0.26991909	0.33124524	0.0057618467	0.67995292	0.4486903	-0.0022023541	0.36730237	0.73296232	-0.15638441	0.50493944	0.7970399	0.20599353	0.45843613	0.8368186	-0.11813436	0.53656097	0.87283777	0.11092259	0.31109172	0.87429504	0.056649775	0.52059145	1.3259921	-0.1260283	0.49327076	1.321687	0.18573214	0.42721217	1.3542715	0.018718057	0.53272005	0.97134797	-0.17818284	0.26936051	1.060365	0.1993476	0.75502424	0.98077552	-0.060442542	0.24578772	0.86352549	0.34589976
333	1.328	0.057776006	-0.060032541	-0.02279543	0.89754979	0.040071361	0.054025316	0.017530461	0.062876582	-0.077936998	0.75826672	0.053802628	0.10491047	0.047112146	0.0746332	-0.00081558534	0.76848675	0.079080598	0.018516611	-0.032080833	0.10145564	-0.030160953	0.70503011	0.028812001	0.063903827	0.26152333	0.3675283	-0.11412286	0.7104564	0.4493054	0.12322729	0.27868561	0.33020401	0.0044312374	0.68481795	0.45037465	-0.0026917287	0.37489973	0.73254124	-0.15668786	0.5111696	0.7988049	0.20594887	0.46535768	0.83695311	-0.1176064	0.54272383	0.87366333	0.11080365	0.31709248	0.8758886	0.05573816	0.52794306	1.3268864	-0.12470183	0.4997725	1.3224451	0.18661387	0.43401797	1.355029	0.019475338	0.5373539	0.97224048	-0.17695969	0.27672643	1.0603394	0.19968569	0.75970492	0.97826798	-0.05902707	0.25410412	0.86405411	0.34765039
334	1.332	0.05954755	-0.059249426	-0.023219228	0.89804275	0.039807682	0.054119935	0.023809981	0.064794039	-0.079498898	0.75848768	0.053855323	0.10475626	0.053805073	0.076049974	-0.0022418426	0.76889964	0.078936721	0.018318884	-0.024520782	0.10524028	-0.031769924	0.70526406	0.028878818	0.06388293	0.26988957	0.36747588	-0.11501708	0.71608514	0.45012774	0.12242891	0.28762718	0.32910525	0.0030722582	0.68980511	0.45199344	-0.0031222947	0.38246289	0.73214048	-0.15700146	0.5174213	0.80059566	0.20596976	0.47219767	0.8371267	-0.11707397	0.54885223	0.87449137	0.110719	0.32320055	0.8774898	0.054821478	0.5351913	1.3277638	-0.12344154	0.50618614	1.3231899	0.18746926	0.44065466	1.3557299	0.020274983	0.54208304	0.97320209	-0.17589147	0.28417413	1.0603036	0.20005371	0.76432729	0.97568546	-0.057688813	0.2625064	0.86449704	0.34943944
335	1.336	0.061542985	-0.058140908	-0.023665058	0.8984467	0.039603982	0.054190647	0.03013331	0.067001828	-0.080980867	0.75866099	0.053912936	0.10460906	0.060459569	0.077814383	-0.0036052238	0.76925755	0.078814354	0.01812042	-0.016783974	0.10926456	-0.033559989	0.70546379	0.028919391	0.063858065	0.2783858	0.36739614	-0.11587449	0.72153416	0.45078808	0.12175547	0.29675682	0.32800055	0.001686626	0.69490507	0.45350001	-0.0035073947	0.38997704	0.73179395	-0.15729666	0.52362662	0.80237013	0.20603305	0.4789657	0.83734451	-0.11653473	0.55493568	0.87530867	0.11067031	0.32948801	0.87917476	0.054017453	0.54233672	1.3286223	-0.12225537	0.51250772	1.3239234	0.1882885	0.44709947	1.3564032	0.021128169	0.54688782	0.97421603	-0.17495809	0.29155575	1.0602638	0.20053747	0.76888888	0.9730317	-0.056430398	0.27100156	0.86485263	0.35126616
336	1.34	0.063736077	-0.056757114	-0.024184911	0.89877096	0.03944323	0.054218938	0.03650848	0.069522945	-0.082361144	0.75882619	0.053973299	0.10446254	0.067068479	0.079938742	-0.0048801389	0.76955757	0.078714224	0.017939283	-0.008937876	0.11344144	-0.03540126	0.7056303	0.028936864	0.063820652	0.28704922	0.36729001	-0.11668936	0.72676565	0.45128762	0.12121304	0.30604585	0.3269403	0.00027571153	0.70009938	0.45486461	-0.0038652304	0.39743538	0.7315426	-0.15753984	0.5296565	0.80406691	0.20607267	0.48568369	0.83760989	-0.1160077	0.5609514	0.87611013	0.11065083	0.33579548	0.88098484	0.053418383	0.54937873	1.3294659	-0.12114975	0.51873132	1.3246554	0.18906257	0.45336756	1.3570757	0.021970134	0.55168512	0.97524322	-0.17409202	0.29880855	1.0601882	0.20114874	0.77338951	0.9703194	-0.055250188	0.27958722	0.86512243	0.35312049
337	1.344	0.066111683	-0.055125302	-0.024802834	0.89903325	0.039313191	0.054229359	0.042943484	0.072339895	-0.083653251	0.75899741	0.054024987	0.10432258	0.073648636	0.082378765	-0.0060597834	0.76981805	0.078636456	0.017787839	-0.0011089217	0.11767099	-0.037134388	0.70576306	0.028937273	0.063770166	0.29590579	0.36715915	-0.11746916	0.73174125	0.45162529	0.12080121	0.31543514	0.32596959	-0.0011366111	0.70535558	0.45607123	-0.0042131938	0.40483701	0.73142255	-0.15772356	0.53541477	0.80564005	0.20603688	0.4923819	0.83792633	-0.11551411	0.56688245	0.87690555	0.1106569	0.34190914	0.88283292	0.053000477	0.55631685	1.3303068	-0.12013087	0.52485095	1.3254011	0.18979293	0.4594929	1.3577631	0.022731802	0.55641119	0.9762602	-0.17324647	0.30597346	1.0600337	0.20187102	0.77782411	0.96756719	-0.054160708	0.2882562	0.86531358	0.3549901
338	1.348	0.068700496	-0.053263614	-0.025512821	0.89924594	0.03920934	0.054256288	0.049434493	0.075409426	-0.084883836	0.75916033	0.054058916	0.10419923	0.080231967	0.085053982	-0.0071480949	0.77005705	0.078579129	0.017670399	0.0066055214	0.12189381	-0.038654575	0.70586009	0.028929434	0.063714139	0.30497531	0.36701905	-0.1182325	0.7364238	0.45180565	0.12051083	0.32487681	0.3251263	-0.0024807601	0.71063668	0.45711025	-0.0045554429	0.41217599	0.73145722	-0.15786076	0.54093144	0.80709105	0.20594953	0.49908785	0.83830113	-0.11506644	0.57272818	0.87770956	0.11069261	0.34776619	0.88453733	0.052643106	0.56315011	1.3311611	-0.11920611	0.53086411	1.3261745	0.1904897	0.46550168	1.3584687	0.023390739	0.56107047	0.97727842	-0.17242928	0.31313176	1.0597821	0.20269669	0.78217369	0.96479505	-0.053208464	0.29700048	0.86543473	0.35686842
339	1.352	0.071556968	-0.051208898	-0.026299819	0.8994107	0.039130279	0.054314797	0.055973206	0.078691326	-0.086055206	0.75929193	0.054073679	0.10410004	0.08684214	0.087891861	-0.0081474227	0.77027927	0.078538363	0.017588505	0.014191704	0.12610613	-0.039925916	0.70592089	0.028920472	0.063662457	0.31427536	0.36690201	-0.11899686	0.74079655	0.4518475	0.12033395	0.33436605	0.32444298	-0.0036533102	0.71590613	0.45797293	-0.0048766013	0.41944245	0.73165764	-0.15797033	0.54634585	0.80846289	0.20590263	0.50579371	0.83874955	-0.11466125	0.57850119	0.8785261	0.11076716	0.3534569	0.88595654	0.052242367	0.56987851	1.3320408	-0.11837752	0.53677416	1.3269848	0.19115956	0.47140388	1.3591962	0.023955743	0.56570247	0.97832714	-0.17167033	0.3203293	1.0594502	0.20362476	0.78641161	0.96201757	-0.052452667	0.30581123	0.86549052	0.35875599
340	1.356	0.074732308	-0.049001727	-0.02715691	0.89952591	0.039071349	0.054396763	0.062565863	0.082158787	-0.0871331	0.7593812	0.05407057	0.10402688	0.093483866	0.090863736	-0.0090479689	0.77047935	0.078509739	0.017541553	0.021696166	0.13034062	-0.040961412	0.70594887	0.028911291	0.063622458	0.32382559	0.36684071	-0.11977186	0.74488782	0.45178467	0.12027585	0.34394037	0.32395268	-0.0045664187	0.72112402	0.45865158	-0.0051487822	0.42662963	0.73202517	-0.15806337	0.55178674	0.80979344	0.20598067	0.51244588	0.83929627	-0.11428243	0.58422054	0.87934474	0.1108925	0.35908777	0.88709542	0.05178703	0.57650715	1.3329538	-0.11763465	0.54258538	1.3278358	0.19179885	0.47720314	1.3599654	0.024436913	0.57034035	0.97943208	-0.17099096	0.32753983	1.0590652	0.20465417	0.79052863	0.95923585	-0.051894657	0.31468113	0.86548507	0.36065513
